<svg preserveAspectRatio="none" overflow="visible" style="display: block;" width="1385.1" height="977.228" viewBox="0 0 1385.1 977.228" fill="none" xmlns="http://www.w3.org/2000/svg">
<g id="DINIG">
<rect x="25" y="25" width="1335.1" height="927.228" rx="33" fill="#00A460"/>
<rect x="25" y="25" width="1335.1" height="927.228" rx="33" stroke="#FFC400" stroke-width="50"/>
<path id="Vector" d="M1144.44 595.174C1138.97 591.764 1136.25 586.304 1136.25 578.78V537.795C1136.25 524.139 1143.07 517.303 1156.74 517.303H1234.61C1248.27 517.303 1255.1 524.139 1255.1 537.795V771.407C1255.1 794.636 1247.93 813.079 1233.59 826.736C1219.24 840.408 1199.77 847.228 1175.18 847.228H1099.36C1074.77 847.228 1055.3 840.408 1040.96 826.736C1026.61 813.079 1019.44 794.636 1019.44 771.407V205.822C1019.44 182.608 1026.61 164.165 1040.96 150.493C1055.3 136.836 1074.77 130 1099.36 130H1175.18C1199.77 130 1219.24 136.66 1233.59 149.98C1247.93 163.3 1255.1 181.919 1255.1 205.822V466.073C1255.1 479.745 1248.27 486.565 1234.61 486.565H1173.13C1159.46 486.565 1152.64 479.745 1152.64 466.073V228.363C1152.64 224.265 1151.26 220.518 1148.54 217.092C1145.81 213.682 1142.4 211.969 1138.3 211.969H1136.25C1132.82 211.969 1129.59 213.506 1126.51 216.58C1123.44 219.654 1121.9 223.592 1121.9 228.363V748.865C1121.9 759.8 1126.67 765.259 1136.25 765.259H1138.3C1147.85 765.259 1152.64 759.8 1152.64 748.865V611.567C1152.64 604.059 1149.9 598.6 1144.44 595.174ZM968.212 847.228H906.735C893.063 847.228 886.243 840.408 886.243 826.736V150.493C886.243 136.836 893.063 130 906.735 130H968.212C981.868 130 988.704 136.836 988.704 150.493V826.736C988.704 840.408 981.868 847.228 968.212 847.228ZM827.15 813.23H746.4C728.441 813.23 718.137 809.331 715.445 801.515L669.687 551.844H662.958L665.65 687.745C665.65 695.561 656.67 699.461 638.733 699.461H610.983C593.024 699.461 584.066 695.561 584.066 687.745L531.066 203.941C531.066 196.134 540.024 192.225 557.983 192.225H638.733C656.67 192.225 666.533 196.134 668.341 203.941L715.445 510.84H722.175L719.483 301.131C719.483 293.324 728.441 289.416 746.4 289.416H766.15C784.087 289.416 793.067 293.324 793.067 301.131L854.067 801.515C854.067 809.331 845.087 813.23 827.15 813.23ZM478.368 847.228H416.891C403.219 847.228 396.399 840.408 396.399 826.736V150.493C396.399 136.836 403.219 130 416.891 130H478.368C492.024 130 498.86 136.836 498.86 150.493V826.736C498.86 840.408 492.024 847.228 478.368 847.228ZM285.741 847.228H150.492C136.82 847.228 130 840.408 130 826.736V150.493C130 136.836 136.82 130 150.492 130H285.741C312.381 130 332.361 137.013 345.68 151.005C359 165.013 365.66 183.28 365.66 205.822V771.407C365.66 794.636 359.337 813.079 346.705 826.736C334.058 840.408 313.741 847.228 285.741 847.228ZM263.199 228.363C263.199 217.444 258.412 211.969 248.855 211.969H232.461V765.259H248.855C258.412 765.259 263.199 759.8 263.199 748.865V228.363Z" fill-rule="evenodd" clip-rule="evenodd" fill="#F0F0F0"/>
</g>
</svg>
